<svg width="24" height="24" viewBox="0 0 24 24" fill="none" xmlns="http://www.w3.org/2000/svg">
<path fill-rule="evenodd" clip-rule="evenodd" d="M19.2573 12.0051C19.2573 11.3146 18.6975 10.7549 18.007 10.7549C17.3166 10.7549 16.7568 11.3146 16.7568 12.0051C16.7568 12.6956 17.3166 13.2553 18.007 13.2553C18.6975 13.2553 19.2573 12.6956 19.2573 12.0051Z" fill="#555555"/>
<path fill-rule="evenodd" clip-rule="evenodd" d="M13.2553 12.0051C13.2553 11.3146 12.6956 10.7549 12.0051 10.7549C11.3146 10.7549 10.7549 11.3146 10.7549 12.0051C10.7549 12.6956 11.3146 13.2553 12.0051 13.2553C12.6956 13.2553 13.2553 12.6956 13.2553 12.0051Z" fill="#555555"/>
<path fill-rule="evenodd" clip-rule="evenodd" d="M7.25237 12.0051C7.25237 11.3146 6.69263 10.7549 6.00216 10.7549C5.31169 10.7549 4.75195 11.3146 4.75195 12.0051C4.75195 12.6956 5.31169 13.2553 6.00216 13.2553C6.69263 13.2553 7.25237 12.6956 7.25237 12.0051Z" fill="#555555"/>
</svg>
